<svg xmlns="http://www.w3.org/2000/svg" viewBox="0 0 1200 630" width="1200" height="630">
  <defs>
    <linearGradient id="bg" x1="0%" y1="0%" x2="100%" y2="100%">
      <stop offset="0%" stop-color="#1e3a8a"/>
      <stop offset="45%" stop-color="#1d4ed8"/>
      <stop offset="75%" stop-color="#2563eb"/>
      <stop offset="100%" stop-color="#0891b2"/>
    </linearGradient>
  </defs>
  <rect width="1200" height="630" fill="url(#bg)"/>
  <text x="600" y="250" text-anchor="middle" fill="#ffffff" font-family="system-ui, -apple-system, sans-serif" font-size="72" font-weight="700" letter-spacing="-1">CableTrayRoute</text>
  <text x="600" y="330" text-anchor="middle" fill="rgba(255,255,255,0.82)" font-family="system-ui, -apple-system, sans-serif" font-size="32" font-weight="400">Integrated Cable Routing Workflow</text>
  <text x="600" y="400" text-anchor="middle" fill="rgba(255,255,255,0.6)" font-family="system-ui, -apple-system, sans-serif" font-size="22" font-weight="400">Browser-based toolkit for cable scheduling, analysis, and optimal routing</text>
  <g transform="translate(430,460)" fill="none" stroke="rgba(255,255,255,0.5)" stroke-width="2">
    <rect x="0" y="0" width="40" height="40" rx="6"/>
    <line x1="10" y1="20" x2="30" y2="20"/>
    <line x1="10" y1="12" x2="30" y2="12"/>
    <line x1="10" y1="28" x2="25" y2="28"/>
  </g>
  <g transform="translate(510,460)" fill="none" stroke="rgba(255,255,255,0.5)" stroke-width="2">
    <rect x="0" y="0" width="40" height="40" rx="6"/>
    <circle cx="20" cy="20" r="12"/>
    <line x1="8" y1="20" x2="32" y2="20"/>
  </g>
  <g transform="translate(590,460)" fill="none" stroke="rgba(255,255,255,0.5)" stroke-width="2">
    <rect x="0" y="0" width="40" height="40" rx="6"/>
    <polyline points="8,30 16,14 24,22 32,8"/>
  </g>
  <g transform="translate(670,460)" fill="none" stroke="rgba(255,255,255,0.5)" stroke-width="2">
    <rect x="0" y="0" width="40" height="40" rx="6"/>
    <line x1="20" y1="8" x2="20" y2="32"/>
    <line x1="8" y1="20" x2="20" y2="8"/>
    <line x1="32" y1="20" x2="20" y2="8"/>
  </g>
  <g transform="translate(750,460)" fill="none" stroke="rgba(255,255,255,0.5)" stroke-width="2">
    <rect x="0" y="0" width="40" height="40" rx="6"/>
    <rect x="10" y="10" width="20" height="20" rx="2"/>
    <line x1="10" y1="20" x2="30" y2="20"/>
  </g>
</svg>
