<svg width="720" height="360" viewBox="0 0 720 360" fill="none" xmlns="http://www.w3.org/2000/svg">
  <rect width="720" height="360" rx="24" fill="url(#bg)"/>
  <rect x="40" y="48" width="640" height="264" rx="18" fill="#FFFFFF" fill-opacity="0.96"/>
  <rect x="72" y="80" width="190" height="32" rx="8" fill="#DBEAFE"/>
  <rect x="282" y="80" width="140" height="32" rx="8" fill="#E0E7FF"/>
  <rect x="440" y="80" width="200" height="32" rx="8" fill="#CFFAFE"/>
  <rect x="72" y="132" width="568" height="14" rx="7" fill="#93C5FD"/>
  <rect x="72" y="162" width="520" height="14" rx="7" fill="#A5B4FC"/>
  <rect x="72" y="192" width="548" height="14" rx="7" fill="#67E8F9"/>
  <rect x="72" y="222" width="474" height="14" rx="7" fill="#BFDBFE"/>
  <rect x="72" y="252" width="530" height="14" rx="7" fill="#C4B5FD"/>
  <circle cx="604" cy="244" r="28" fill="#2563EB" fill-opacity="0.14"/>
  <path d="M594 244L602 252L616 236" stroke="#1D4ED8" stroke-width="8" stroke-linecap="round" stroke-linejoin="round"/>
  <defs>
    <linearGradient id="bg" x1="24" y1="16" x2="696" y2="344" gradientUnits="userSpaceOnUse">
      <stop stop-color="#1D4ED8"/>
      <stop offset="1" stop-color="#0EA5E9"/>
    </linearGradient>
  </defs>
</svg>
