<svg width="720" height="360" viewBox="0 0 720 360" fill="none" xmlns="http://www.w3.org/2000/svg">
  <rect width="720" height="360" rx="24" fill="url(#bg)"/>
  <rect x="56" y="58" width="608" height="244" rx="18" fill="#F8FAFC"/>
  <rect x="84" y="88" width="224" height="184" rx="14" fill="#CCFBF1"/>
  <rect x="324" y="88" width="312" height="114" rx="14" fill="#DBEAFE"/>
  <rect x="324" y="216" width="312" height="56" rx="14" fill="#E0F2FE"/>
  <path d="M106 232L146 186L186 198L222 152L278 174" stroke="#0F766E" stroke-width="8" stroke-linecap="round" stroke-linejoin="round"/>
  <circle cx="142" cy="130" r="18" fill="#14B8A6" fill-opacity="0.28"/>
  <path d="M142 120V140" stroke="#0F766E" stroke-width="6" stroke-linecap="round"/>
  <path d="M132 130H152" stroke="#0F766E" stroke-width="6" stroke-linecap="round"/>
  <rect x="348" y="112" width="170" height="16" rx="8" fill="#93C5FD"/>
  <rect x="348" y="140" width="244" height="16" rx="8" fill="#60A5FA"/>
  <rect x="348" y="168" width="204" height="16" rx="8" fill="#38BDF8"/>
  <rect x="350" y="234" width="138" height="20" rx="10" fill="#67E8F9"/>
  <rect x="500" y="234" width="114" height="20" rx="10" fill="#22D3EE"/>
  <circle cx="590" cy="116" r="24" fill="#2563EB" fill-opacity="0.16"/>
  <path d="M578 116L588 126L606 108" stroke="#1D4ED8" stroke-width="7" stroke-linecap="round" stroke-linejoin="round"/>
  <defs>
    <linearGradient id="bg" x1="34" y1="22" x2="686" y2="338" gradientUnits="userSpaceOnUse">
      <stop stop-color="#0F766E"/>
      <stop offset="1" stop-color="#2563EB"/>
    </linearGradient>
  </defs>
</svg>
